<svg width="1512" height="773" viewBox="0 0 1512 773" fill="none" xmlns="http://www.w3.org/2000/svg">
<g clip-path="url(#clip0_26_635)">
<rect width="1512" height="773" fill="#9D3D3E"/>
<rect width="1509" height="982" transform="translate(-235 -202)" fill="white"/>
<g clip-path="url(#clip1_26_635)">
<path d="M1286 -204.757H-238.365V789.757H1286V-204.757Z" fill="#9D3D3E"/>
<path d="M-238.365 28.208C-238.365 28.208 -116.098 1.60476 -84.5521 -91.5066C-54.3824 -180.764 69.8957 -204.757 69.8957 -204.757" stroke="#2C5257" stroke-width="2" stroke-miterlimit="10"/>
<path d="M-238.365 72.9611C-238.365 72.9611 -88.363 42.2555 -49.7246 -70.1246C-12.8858 -177.408 139.445 -204.757 139.445 -204.757" stroke="#2C5257" stroke-width="2" stroke-miterlimit="10"/>
<path d="M-238.365 117.839C-238.365 117.839 -60.7339 82.9063 -15.0029 -48.4939C28.6108 -174.176 208.994 -204.757 208.994 -204.757" stroke="#2C5257" stroke-width="2" stroke-miterlimit="10"/>
<path d="M-238.365 162.592C-238.365 162.592 -32.9989 123.557 19.8245 -27.1118C70.1074 -170.819 278.543 -204.757 278.543 -204.757" stroke="#2C5257" stroke-width="2" stroke-miterlimit="10"/>
<path d="M-238.365 207.345C-238.365 207.345 -5.26394 164.208 54.6521 -5.60547C111.604 -167.463 347.987 -204.757 347.987 -204.757" stroke="#2C5257" stroke-width="2" stroke-miterlimit="10"/>
<path d="M-238.365 252.222C-238.365 252.222 22.3652 204.983 89.3737 15.9009C153.206 -164.23 417.536 -204.757 417.536 -204.757" stroke="#2C5257" stroke-width="2" stroke-miterlimit="10"/>
<path d="M-238.365 296.975C-238.365 296.975 50.1002 245.509 124.201 37.4073C194.703 -160.874 487.085 -204.757 487.085 -204.757" stroke="#2C5257" stroke-width="2" stroke-miterlimit="10"/>
<path d="M-238.365 341.728C-238.365 341.728 77.8351 286.16 158.923 58.7893C236.2 -157.517 556.634 -204.757 556.634 -204.757" stroke="#2C5257" stroke-width="2" stroke-miterlimit="10"/>
<path d="M-238.365 386.606C-238.365 386.606 105.464 326.935 193.75 80.42C277.696 -154.285 626.077 -204.757 626.077 -204.757" stroke="#2C5257" stroke-width="2" stroke-miterlimit="10"/>
<path d="M-238.365 431.359C-238.365 431.359 133.199 367.586 228.472 101.926C319.193 -150.929 695.626 -204.757 695.626 -204.757" stroke="#2C5257" stroke-width="2" stroke-miterlimit="10"/>
<path d="M-238.365 476.236C-238.365 476.236 160.934 408.237 263.299 123.433C360.689 -147.572 765.175 -204.757 765.175 -204.757" stroke="#2C5257" stroke-width="2" stroke-miterlimit="10"/>
<path d="M-238.365 520.99C-238.365 520.99 188.563 448.887 298.021 144.939C402.186 -144.34 834.725 -204.757 834.725 -204.757" stroke="#2C5257" stroke-width="2" stroke-miterlimit="10"/>
<path d="M-238.365 565.743C-238.365 565.743 216.298 489.538 332.849 166.321C443.683 -140.984 904.274 -204.757 904.274 -204.757" stroke="#2C5257" stroke-width="2" stroke-miterlimit="10"/>
<path d="M-238.365 610.62C-238.365 610.62 244.033 530.189 367.676 187.952C485.179 -137.627 973.717 -204.757 973.717 -204.757" stroke="#2C5257" stroke-width="2" stroke-miterlimit="10"/>
<path d="M-238.365 655.373C-238.365 655.373 271.662 570.84 402.398 209.334C526.676 -134.395 1043.27 -204.757 1043.27 -204.757" stroke="#2C5257" stroke-width="2" stroke-miterlimit="10"/>
<path d="M-238.365 700.126C-238.365 700.126 299.397 611.49 437.225 230.84C568.172 -131.039 1112.82 -204.757 1112.82 -204.757" stroke="#2C5257" stroke-width="2" stroke-miterlimit="10"/>
<path d="M-238.365 745.004C-238.365 745.004 327.132 652.265 471.947 252.347C609.669 -127.682 1182.36 -204.757 1182.36 -204.757" stroke="#2C5257" stroke-width="2" stroke-miterlimit="10"/>
<path d="M-238.365 789.757C-238.365 789.757 354.761 692.792 506.774 273.853C651.166 -124.45 1251.81 -204.757 1251.81 -204.757" stroke="#2C5257" stroke-width="2" stroke-miterlimit="10"/>
<path d="M1282.08 735.929C1282.08 735.929 1270.65 745.998 1267.37 762.408C1264.09 778.942 1251.91 789.633 1251.91 789.633" stroke="#2C5257" stroke-width="2" stroke-miterlimit="10"/>
<path d="M1282.08 691.176C1282.08 691.176 1242.92 705.347 1232.54 741.026C1222.59 775.709 1182.36 789.757 1182.36 789.757" stroke="#2C5257" stroke-width="2" stroke-miterlimit="10"/>
<path d="M1282.08 646.423C1282.08 646.423 1215.18 664.697 1197.82 719.519C1180.99 772.353 1112.82 789.757 1112.82 789.757" stroke="#2C5257" stroke-width="2" stroke-miterlimit="10"/>
<path d="M1282.08 601.545C1282.08 601.545 1187.55 624.046 1162.99 698.013C1139.6 768.996 1043.27 789.757 1043.27 789.757" stroke="#2C5257" stroke-width="2" stroke-miterlimit="10"/>
<path d="M1282.08 556.792C1282.08 556.792 1159.82 583.395 1128.27 676.507C1098.1 765.764 973.823 789.757 973.823 789.757" stroke="#2C5257" stroke-width="2" stroke-miterlimit="10"/>
<path d="M1282.08 511.915C1282.08 511.915 1132.08 542.62 1093.44 655C1056.5 762.408 904.273 789.757 904.273 789.757" stroke="#2C5257" stroke-width="2" stroke-miterlimit="10"/>
<path d="M1282.08 467.161C1282.08 467.161 1104.45 502.094 1058.72 633.494C1015.11 759.051 834.831 789.757 834.831 789.757" stroke="#2C5257" stroke-width="2" stroke-miterlimit="10"/>
<path d="M1282.08 422.408C1282.08 422.408 1076.72 461.443 1023.89 612.112C973.505 755.819 765.175 789.757 765.175 789.757" stroke="#2C5257" stroke-width="2" stroke-miterlimit="10"/>
<path d="M1282.08 377.531C1282.08 377.531 1048.98 420.668 989.067 590.481C932.009 752.463 695.626 789.757 695.626 789.757" stroke="#2C5257" stroke-width="2" stroke-miterlimit="10"/>
<path d="M1282.08 332.778C1282.08 332.778 1021.35 380.017 954.345 569.099C890.512 749.106 626.077 789.757 626.077 789.757" stroke="#2C5257" stroke-width="2" stroke-miterlimit="10"/>
<path d="M1282.08 288.025C1282.08 288.025 993.618 339.491 919.517 547.593C849.016 745.874 556.634 789.757 556.634 789.757" stroke="#2C5257" stroke-width="2" stroke-miterlimit="10"/>
<path d="M1282.08 243.147C1282.08 243.147 965.884 298.716 884.796 526.086C807.519 742.517 487.085 789.757 487.085 789.757" stroke="#2C5257" stroke-width="2" stroke-miterlimit="10"/>
<path d="M1282.08 198.394C1282.08 198.394 938.254 258.065 849.968 504.58C766.022 739.285 417.536 789.757 417.536 789.757" stroke="#2C5257" stroke-width="2" stroke-miterlimit="10"/>
<path d="M1282.08 153.641C1282.08 153.641 910.519 217.414 815.247 483.074C724.526 735.929 347.986 789.757 347.986 789.757" stroke="#2C5257" stroke-width="2" stroke-miterlimit="10"/>
<path d="M1282.08 108.764C1282.08 108.764 882.784 176.764 780.419 461.567C683.029 732.572 278.543 789.757 278.543 789.757" stroke="#2C5257" stroke-width="2" stroke-miterlimit="10"/>
<path d="M1282.08 64.0105C1282.08 64.0105 855.155 136.113 745.698 440.061C641.533 729.34 208.994 789.757 208.994 789.757" stroke="#2C5257" stroke-width="2" stroke-miterlimit="10"/>
<path d="M1282.08 19.2573C1282.08 19.2573 827.42 95.4619 710.87 418.679C600.036 725.984 139.445 789.757 139.445 789.757" stroke="#2C5257" stroke-width="2" stroke-miterlimit="10"/>
<path d="M1282.08 -25.6201C1282.08 -25.6201 799.686 54.8112 676.043 397.048C558.539 722.627 69.8958 789.757 69.8958 789.757" stroke="#2C5257" stroke-width="2" stroke-miterlimit="10"/>
<path d="M1282.08 -70.3732C1282.08 -70.3732 772.056 14.1605 641.321 375.666C517.043 719.395 0.346436 789.757 0.346436 789.757" stroke="#2C5257" stroke-width="2" stroke-miterlimit="10"/>
<path d="M1282.08 -115.126C1282.08 -115.126 744.321 -26.4903 606.493 354.16C475.546 716.039 -69.0967 789.757 -69.0967 789.757" stroke="#2C5257" stroke-width="2" stroke-miterlimit="10"/>
<path d="M1282.08 -160.004C1282.08 -160.004 716.586 -67.2654 571.772 332.653C433.944 712.682 -138.646 789.757 -138.646 789.757" stroke="#2C5257" stroke-width="2" stroke-miterlimit="10"/>
<path d="M1282.08 -204.757C1282.08 -204.757 688.957 -107.792 536.944 311.147C392.447 709.45 -208.195 789.757 -208.195 789.757" stroke="#2C5257" stroke-width="2" stroke-miterlimit="10"/>
</g>
<rect x="-238.5" y="-205.5" width="1524" height="996" stroke="black"/>
<rect x="756" width="756" height="773" fill="#F7F7F7"/>
<rect x="1500" y="51" width="6" height="170" rx="3" fill="#D9D9D9"/>
</g>
<defs>
<clipPath id="clip0_26_635">
<rect width="1512" height="773" fill="white"/>
</clipPath>
<clipPath id="clip1_26_635">
<rect x="-239" y="-206" width="1525" height="997" fill="white"/>
</clipPath>
</defs>
</svg>
