<svg width="1512" height="773" viewBox="0 0 1512 773" fill="none" xmlns="http://www.w3.org/2000/svg">
<g clip-path="url(#clip0_13_4730)">
<rect width="1512" height="773" fill="#9D3D3E"/>
<g clip-path="url(#clip1_13_4730)">
<rect width="2000" height="2000" transform="translate(-238 -367)" fill="#9D3D3E"/>
<g clip-path="url(#clip2_13_4730)">
<path d="M1762 754.259H-238V755.529H1762V754.259Z" fill="#2C5257"/>
<path d="M1762 729.902H-238V731.172H1762V729.902Z" fill="#2C5257"/>
<path d="M1762 705.529H-238V706.798H1762V705.529Z" fill="#2C5257"/>
<path d="M1762 681.138H-238V682.408H1762V681.138Z" fill="#2C5257"/>
<path d="M1762 656.781H-238V658.051H1762V656.781Z" fill="#2C5257"/>
<path d="M1762 632.391H-238V633.66H1762V632.391Z" fill="#2C5257"/>
<path d="M1762 608.017H-238V609.286H1762V608.017Z" fill="#2C5257"/>
<path d="M1762 583.66H-238V584.93H1762V583.66Z" fill="#2C5257"/>
<path d="M1762 559.286H-238V560.556H1762V559.286Z" fill="#2C5257"/>
<path d="M1762 534.913H-238V536.182H1762V534.913Z" fill="#2C5257"/>
<path d="M1762 510.522H-238V511.791H1762V510.522Z" fill="#2C5257"/>
<path d="M1762 486.148H-238V487.418H1762V486.148Z" fill="#2C5257"/>
<path d="M1762 461.792H-238V463.061H1762V461.792Z" fill="#2C5257"/>
<path d="M1762 437.418H-238V438.687H1762V437.418Z" fill="#2C5257"/>
<path d="M1762 413.044H-238V414.313H1762V413.044Z" fill="#2C5257"/>
<path d="M1762 388.653H-238V389.923H1762V388.653Z" fill="#2C5257"/>
<path d="M1762 364.28H-238V365.549H1762V364.28Z" fill="#2C5257"/>
<path d="M1762 339.923H-238V341.192H1762V339.923Z" fill="#2C5257"/>
<path d="M1762 315.549H-238V316.819H1762V315.549Z" fill="#2C5257"/>
<path d="M1762 291.175H-238V292.445H1762V291.175Z" fill="#2C5257"/>
<path d="M1762 266.785H-238V268.054H1762V266.785Z" fill="#2C5257"/>
<path d="M1762 242.411H-238V243.68H1762V242.411Z" fill="#2C5257"/>
<path d="M1762 218.054H-238V219.324H1762V218.054Z" fill="#2C5257"/>
<path d="M1762 193.68H-238V194.95H1762V193.68Z" fill="#2C5257"/>
<path d="M1762 169.307H-238V170.576H1762V169.307Z" fill="#2C5257"/>
<path d="M1762 144.916H-238V146.185H1762V144.916Z" fill="#2C5257"/>
<path d="M1762 120.542H-238V121.812H1762V120.542Z" fill="#2C5257"/>
<path d="M1762 96.1855H-238V97.455H1762V96.1855Z" fill="#2C5257"/>
<path d="M1762 71.8118H-238V73.0812H1762V71.8118Z" fill="#2C5257"/>
<path d="M1762 47.4381H-238V48.7076H1762V47.4381Z" fill="#2C5257"/>
<path d="M1762 23.0474H-238V24.3168H1762V23.0474Z" fill="#2C5257"/>
<path d="M7.00677 -367H5.7373V1633H7.00677V-367Z" fill="#2C5257"/>
<path d="M31.3805 -367H30.1111V1633H31.3805V-367Z" fill="#2C5257"/>
<path d="M55.7543 -367H54.4849V1633H55.7543V-367Z" fill="#2C5257"/>
<path d="M80.1279 -367H78.8584V1633H80.1279V-367Z" fill="#2C5257"/>
<path d="M104.502 -367H103.232V1633H104.502V-367Z" fill="#2C5257"/>
<path d="M128.875 -367H127.606V1633H128.875V-367Z" fill="#2C5257"/>
<path d="M153.249 -367H151.98V1633H153.249V-367Z" fill="#2C5257"/>
<path d="M177.623 -367H176.354V1633H177.623V-367Z" fill="#2C5257"/>
<path d="M201.997 -367H200.727V1633H201.997V-367Z" fill="#2C5257"/>
<path d="M226.37 -367H225.101V1633H226.37V-367Z" fill="#2C5257"/>
<path d="M250.744 -367H249.475V1633H250.744V-367Z" fill="#2C5257"/>
<path d="M275.118 -367H273.848V1633H275.118V-367Z" fill="#2C5257"/>
<path d="M299.492 -367H298.222V1633H299.492V-367Z" fill="#2C5257"/>
<path d="M323.865 -367H322.596V1633H323.865V-367Z" fill="#2C5257"/>
<path d="M348.239 -367H346.969V1633H348.239V-367Z" fill="#2C5257"/>
<path d="M372.613 -367H371.343V1633H372.613V-367Z" fill="#2C5257"/>
<path d="M396.987 -367H395.717V1633H396.987V-367Z" fill="#2C5257"/>
<path d="M421.36 -367H420.091V1633H421.36V-367Z" fill="#2C5257"/>
<path d="M445.734 -367H444.464V1633H445.734V-367Z" fill="#2C5257"/>
<path d="M470.108 -367H468.838V1633H470.108V-367Z" fill="#2C5257"/>
<path d="M494.481 -367H493.212V1633H494.481V-367Z" fill="#2C5257"/>
<path d="M518.855 -367H517.586V1633H518.855V-367Z" fill="#2C5257"/>
<path d="M543.229 -367H541.959V1633H543.229V-367Z" fill="#2C5257"/>
<path d="M567.602 -367H566.333V1633H567.602V-367Z" fill="#2C5257"/>
<path d="M591.976 -367H590.707V1633H591.976V-367Z" fill="#2C5257"/>
<path d="M616.35 -367H615.081V1633H616.35V-367Z" fill="#2C5257"/>
<path d="M640.724 -367H639.454V1633H640.724V-367Z" fill="#2C5257"/>
<path d="M665.098 -367H663.828V1633H665.098V-367Z" fill="#2C5257"/>
<path d="M689.471 -367H688.202V1633H689.471V-367Z" fill="#2C5257"/>
<path d="M713.845 -367H712.575V1633H713.845V-367Z" fill="#2C5257"/>
<path d="M738.219 -367H736.949V1633H738.219V-367Z" fill="#2C5257"/>
<path d="M762.592 -367H761.323V1633H762.592V-367Z" fill="#2C5257"/>
<path d="M786.966 -367H785.697V1633H786.966V-367Z" fill="#2C5257"/>
<path d="M811.34 -367H810.07V1633H811.34V-367Z" fill="#2C5257"/>
<path d="M835.714 -367H834.444V1633H835.714V-367Z" fill="#2C5257"/>
<path d="M860.087 -367H858.818V1633H860.087V-367Z" fill="#2C5257"/>
<path d="M884.461 -367H883.192V1633H884.461V-367Z" fill="#2C5257"/>
<path d="M908.835 -367H907.565V1633H908.835V-367Z" fill="#2C5257"/>
<path d="M933.208 -367H931.939V1633H933.208V-367Z" fill="#2C5257"/>
<path d="M957.582 -367H956.313V1633H957.582V-367Z" fill="#2C5257"/>
<path d="M981.956 -367H980.687V1633H981.956V-367Z" fill="#2C5257"/>
<path d="M1006.33 -367H1005.06V1633H1006.33V-367Z" fill="#2C5257"/>
<path d="M1030.7 -367H1029.43V1633H1030.7V-367Z" fill="#2C5257"/>
<path d="M1055.08 -367H1053.81V1633H1055.08V-367Z" fill="#2C5257"/>
<path d="M1079.45 -367H1078.18V1633H1079.45V-367Z" fill="#2C5257"/>
<path d="M1103.82 -367H1102.56V1633H1103.82V-367Z" fill="#2C5257"/>
<path d="M1128.2 -367H1126.93V1633H1128.2V-367Z" fill="#2C5257"/>
<path d="M1152.57 -367H1151.3V1633H1152.57V-367Z" fill="#2C5257"/>
<path d="M1176.95 -367H1175.68V1633H1176.95V-367Z" fill="#2C5257"/>
<path d="M1201.32 -367H1200.05V1633H1201.32V-367Z" fill="#2C5257"/>
<path d="M1225.69 -367H1224.42V1633H1225.69V-367Z" fill="#2C5257"/>
<path d="M1250.07 -367H1248.8V1633H1250.07V-367Z" fill="#2C5257"/>
<path d="M1274.44 -367H1273.17V1633H1274.44V-367Z" fill="#2C5257"/>
<path d="M1298.81 -367H1297.54V1633H1298.81V-367Z" fill="#2C5257"/>
<path d="M1323.19 -367H1321.92V1633H1323.19V-367Z" fill="#2C5257"/>
<path d="M1347.56 -367H1346.29V1633H1347.56V-367Z" fill="#2C5257"/>
<path d="M1371.94 -367H1370.67V1633H1371.94V-367Z" fill="#2C5257"/>
<path d="M1396.31 -367H1395.04V1633H1396.31V-367Z" fill="#2C5257"/>
<path d="M1420.68 -367H1419.41V1633H1420.68V-367Z" fill="#2C5257"/>
<path d="M1445.06 -367H1443.79V1633H1445.06V-367Z" fill="#2C5257"/>
<path d="M1469.46 -367H1468.2V1633H1469.46V-367Z" fill="#2C5257"/>
<path d="M1493.84 -367H1492.57V1633H1493.84V-367Z" fill="#2C5257"/>
</g>
</g>
<rect x="756" width="756" height="773" fill="#F7F7F7"/>
</g>
<defs>
<clipPath id="clip0_13_4730">
<rect width="1512" height="773" fill="white"/>
</clipPath>
<clipPath id="clip1_13_4730">
<rect width="2000" height="2000" fill="white" transform="translate(-238 -367)"/>
</clipPath>
<clipPath id="clip2_13_4730">
<rect width="2000" height="2000" fill="white" transform="translate(-238 -367)"/>
</clipPath>
</defs>
</svg>
