<svg width="1512" height="773" viewBox="0 0 1512 773" fill="none" xmlns="http://www.w3.org/2000/svg">
<g clip-path="url(#clip0_21_159)">
<rect width="1512" height="773" fill="#9D3D3E"/>
<path d="M2776 381.913C2707.71 418.185 2399.04 733.212 1403.61 405.737C408.183 78.262 112.816 191.717 -44 504.818" stroke="url(#paint0_linear_21_159)" stroke-width="1.22768" stroke-miterlimit="10"/>
<path d="M2774.1 394.063C2709.07 428.608 2395.19 725.15 1408.6 393.792C422.02 62.4341 114.754 217.414 -34.6048 515.598" stroke="url(#paint1_linear_21_159)" stroke-width="1.22768" stroke-miterlimit="10"/>
<path d="M2772.2 406.195C2710.43 439.013 2391.32 717.083 1413.58 381.814C435.844 46.5448 116.666 243.078 -25.2222 526.359" stroke="url(#paint2_linear_21_159)" stroke-width="1.22768" stroke-miterlimit="10"/>
<path d="M2770.31 418.34C2711.78 449.43 2387.47 709.015 1418.56 369.849C449.655 30.6829 118.577 268.756 -15.8405 537.12" stroke="url(#paint3_linear_21_159)" stroke-width="1.22768" stroke-miterlimit="10"/>
<path d="M2768.41 430.49C2713.14 459.853 2383.61 700.966 1423.54 357.903C463.48 14.8403 120.49 294.453 -6.45759 547.914" stroke="url(#paint4_linear_21_159)" stroke-width="1.22768" stroke-miterlimit="10"/>
<path d="M2766.52 442.622C2714.5 470.257 2379.76 692.885 1428.55 345.925C477.344 -1.03496 122.428 320.117 2.95145 558.661" stroke="url(#paint5_linear_21_159)" stroke-width="1.22768" stroke-miterlimit="10"/>
<path d="M2764.63 454.772C2715.86 480.68 2375.9 684.822 1433.53 333.965C491.168 -16.8916 124.339 345.799 12.333 569.44" stroke="url(#paint6_linear_21_159)" stroke-width="1.22768" stroke-miterlimit="10"/>
<path d="M2762.73 466.917C2717.2 491.099 2372.03 676.769 1438.51 322.015C504.992 -32.7388 126.251 371.491 21.7154 580.215" stroke="url(#paint7_linear_21_159)" stroke-width="1.22768" stroke-miterlimit="10"/>
<path d="M2760.83 479.068C2718.56 501.522 2368.18 668.707 1443.49 310.055C518.802 -48.5955 128.175 397.174 31.0833 590.995" stroke="url(#paint8_linear_21_159)" stroke-width="1.22768" stroke-miterlimit="10"/>
<path d="M2758.93 491.199C2719.91 511.926 2364.32 660.64 1448.49 298.077C532.653 -64.485 130.1 422.838 40.4789 601.742" stroke="url(#paint9_linear_21_159)" stroke-width="1.22768" stroke-miterlimit="10"/>
<path d="M2757.03 503.347C2721.27 522.347 2360.46 652.574 1453.47 286.129C546.478 -80.3157 132.012 448.532 49.8619 612.534" stroke="url(#paint10_linear_21_159)" stroke-width="1.22768" stroke-miterlimit="10"/>
<path d="M2755.15 515.495C2722.64 532.767 2356.62 644.524 1458.46 274.167C560.301 -96.1888 133.936 474.213 59.2562 623.297" stroke="url(#paint11_linear_21_159)" stroke-width="1.22768" stroke-miterlimit="10"/>
<path d="M2753.25 527.629C2723.99 543.174 2352.76 636.445 1463.44 262.191C574.125 -112.062 135.847 499.879 68.6385 634.061" stroke="url(#paint12_linear_21_159)" stroke-width="1.22768" stroke-miterlimit="10"/>
<path d="M2751.35 539.779C2725.35 553.597 2348.89 628.396 1468.43 250.246C587.976 -127.905 137.772 525.561 78.0333 644.84" stroke="url(#paint13_linear_21_159)" stroke-width="1.22768" stroke-miterlimit="10"/>
<path d="M2749.46 551.925C2726.69 564.016 2345.03 620.329 1473.42 238.282C601.8 -143.765 139.697 551.24 87.4163 655.616" stroke="url(#paint14_linear_21_159)" stroke-width="1.22768" stroke-miterlimit="10"/>
<path d="M2747.56 564.061C2728.05 574.424 2341.18 612.266 1478.4 226.308C615.61 -159.651 141.608 576.908 96.7975 666.367" stroke="url(#paint15_linear_21_159)" stroke-width="1.22768" stroke-miterlimit="10"/>
<path d="M2745.66 576.206C2729.4 584.842 2337.32 604.199 1483.38 214.343C629.436 -175.512 143.534 602.6 106.194 677.142" stroke="url(#paint16_linear_21_159)" stroke-width="1.22768" stroke-miterlimit="10"/>
<path d="M2743.78 588.352C2730.77 595.261 2333.47 596.132 1488.38 202.394C643.3 -191.344 145.445 628.279 115.576 687.918" stroke="url(#paint17_linear_21_159)" stroke-width="1.22768" stroke-miterlimit="10"/>
<path d="M2741.88 600.5C2732.12 605.682 2329.62 588.082 1493.36 190.432C657.11 -207.217 147.37 653.959 124.971 698.682" stroke="url(#paint18_linear_21_159)" stroke-width="1.22768" stroke-miterlimit="10"/>
<path d="M2739.98 612.636C2733.48 616.091 2325.76 580.004 1498.35 178.458C670.935 -223.088 149.282 679.642 134.354 709.461" stroke="url(#paint19_linear_21_159)" stroke-width="1.22768" stroke-miterlimit="10"/>
<path d="M2738.08 624.78C2734.82 626.507 2321.89 571.949 1503.33 166.506C684.758 -238.938 151.206 705.317 143.735 720.22" stroke="url(#paint20_linear_21_159)" stroke-width="1.22768" stroke-miterlimit="10"/>
<path d="M2736.18 636.93C2736.18 636.93 2318.03 563.887 1508.32 154.546C698.61 -254.794 153.132 731 153.132 731" stroke="#2C5257" stroke-width="1.22768" stroke-miterlimit="10"/>
<path d="M2731.97 614.064C2730.38 615.92 2302.56 579.048 1507.01 173.548C711.464 -231.953 176.068 679.028 154.302 685.537" stroke="#2C5257" stroke-width="1.22768" stroke-miterlimit="10"/>
<path d="M2727.76 591.18C2724.58 594.891 2287.08 594.177 1505.71 192.517C724.332 -209.144 198.991 627.052 155.473 640.07" stroke="#2C5257" stroke-width="1.22768" stroke-miterlimit="10"/>
<path d="M2723.54 568.31C2718.78 573.877 2271.6 609.321 1504.41 211.514C737.226 -186.292 221.927 575.104 156.643 594.604" stroke="#2C5257" stroke-width="1.22768" stroke-miterlimit="10"/>
<path d="M2719.33 545.446C2712.99 552.869 2256.12 624.485 1503.11 230.504C750.096 -163.476 244.879 523.135 157.829 549.144" stroke="#2C5257" stroke-width="1.22768" stroke-miterlimit="10"/>
<path d="M2715.12 522.575C2707.19 531.853 2240.64 639.627 1501.8 249.501C762.965 -140.626 267.816 471.172 159 503.69" stroke="#2C5257" stroke-width="1.22768" stroke-miterlimit="10"/>
<path d="M2710.89 499.707C2701.37 510.841 2225.16 654.787 1500.5 268.486C775.832 -117.815 290.738 419.198 160.17 458.225" stroke="#2C5257" stroke-width="1.22768" stroke-miterlimit="10"/>
<path d="M2706.68 476.843C2695.57 489.833 2209.69 669.936 1499.19 287.475C788.701 -94.9862 313.676 367.242 161.342 412.764" stroke="#2C5257" stroke-width="1.22768" stroke-miterlimit="10"/>
<path d="M2702.46 453.973C2689.77 468.819 2194.21 685.094 1497.89 306.473C801.57 -72.1485 336.613 315.28 162.527 367.311" stroke="#2C5257" stroke-width="1.22768" stroke-miterlimit="10"/>
<path d="M2698.25 431.092C2683.97 447.793 2178.73 700.226 1496.58 325.459C814.438 -49.3081 359.549 263.307 163.697 321.848" stroke="#2C5257" stroke-width="1.22768" stroke-miterlimit="10"/>
<path d="M2694.04 408.223C2678.17 426.78 2163.25 715.371 1495.29 344.444C827.333 -26.4834 382.486 211.332 164.882 276.382" stroke="#2C5257" stroke-width="1.22768" stroke-miterlimit="10"/>
<path d="M2689.82 385.353C2672.37 405.766 2147.77 730.529 1493.98 363.442C840.201 -3.64584 405.423 159.385 166.052 230.93" stroke="#2C5257" stroke-width="1.22768" stroke-miterlimit="10"/>
<path d="M2685.6 362.487C2666.56 384.755 2132.29 745.676 1492.66 382.429C853.043 19.1811 428.346 107.413 167.21 185.452" stroke="#2C5257" stroke-width="1.22768" stroke-miterlimit="10"/>
<path d="M2681.39 339.618C2660.76 363.742 2116.81 760.835 1491.37 401.427C865.938 42.0195 451.297 55.452 168.395 140.001" stroke="#2C5257" stroke-width="1.22768" stroke-miterlimit="10"/>
<path d="M2677.17 316.746C2654.96 342.726 2101.33 775.976 1490.07 420.408C878.806 64.8408 474.221 3.47399 169.566 94.5321" stroke="#2C5257" stroke-width="1.22768" stroke-miterlimit="10"/>
<path d="M2672.96 293.882C2649.16 321.718 2085.85 791.126 1488.76 439.413C891.674 87.6991 497.157 -48.4669 170.737 49.0862" stroke="#2C5257" stroke-width="1.22768" stroke-miterlimit="10"/>
<path d="M2668.74 271.013C2643.36 300.705 2070.37 806.285 1487.47 458.397C904.569 110.509 520.107 -100.442 171.921 3.62013" stroke="#2C5257" stroke-width="1.22768" stroke-miterlimit="10"/>
<path d="M2664.53 248.13C2637.56 279.677 2054.9 821.415 1486.16 477.381C917.424 133.347 543.044 -152.417 173.092 -41.8457" stroke="#2C5257" stroke-width="1.22768" stroke-miterlimit="10"/>
<path d="M2660.31 225.264C2631.74 258.666 2039.41 836.576 1484.84 496.368C930.279 156.16 565.954 -204.389 174.263 -87.3086" stroke="#2C5257" stroke-width="1.22768" stroke-miterlimit="10"/>
<path d="M2656.09 202.395C2625.95 237.653 2023.93 851.721 1483.55 515.367C943.174 179.013 588.904 -256.336 175.448 -132.76" stroke="#2C5257" stroke-width="1.22768" stroke-miterlimit="10"/>
<path d="M2651.88 179.526C2620.15 216.64 2008.45 866.866 1482.25 534.351C956.044 201.837 611.842 -308.311 176.62 -178.226" stroke="#2C5257" stroke-width="1.22768" stroke-miterlimit="10"/>
<path d="M2647.67 156.66C2614.35 195.629 1992.97 882.027 1480.94 553.353C968.912 224.678 634.779 -360.269 177.791 -223.689" stroke="#2C5257" stroke-width="1.22768" stroke-miterlimit="10"/>
<path d="M-157 441.753C-98.6908 407.49 164.89 109.91 1014.89 419.248C1864.88 728.586 2117.09 621.415 2251 325.655" stroke="url(#paint21_linear_21_159)" stroke-width="1.22768" stroke-miterlimit="10"/>
<path d="M-155.379 430.276C-99.8512 397.644 168.178 117.526 1010.62 430.532C1853.07 743.538 2115.44 597.141 2242.98 315.472" stroke="url(#paint22_linear_21_159)" stroke-width="1.22768" stroke-miterlimit="10"/>
<path d="M-153.759 418.816C-101.013 387.816 171.476 125.146 1006.37 441.847C1841.26 758.547 2113.81 572.898 2234.97 305.307" stroke="url(#paint23_linear_21_159)" stroke-width="1.22768" stroke-miterlimit="10"/>
<path d="M-152.138 407.343C-102.162 377.975 174.764 132.767 1002.12 453.149C1829.47 773.53 2112.18 548.643 2226.95 295.142" stroke="url(#paint24_linear_21_159)" stroke-width="1.22768" stroke-miterlimit="10"/>
<path d="M-150.518 395.866C-103.323 368.13 178.062 140.37 997.863 464.433C1817.66 788.495 2110.54 524.369 2218.94 284.946" stroke="url(#paint25_linear_21_159)" stroke-width="1.22768" stroke-miterlimit="10"/>
<path d="M-148.909 384.407C-104.484 358.301 181.349 148.004 993.587 475.748C1805.82 803.491 2108.89 500.127 2210.91 274.794" stroke="url(#paint26_linear_21_159)" stroke-width="1.22768" stroke-miterlimit="10"/>
<path d="M-147.288 372.929C-105.645 348.456 184.649 155.62 989.334 487.045C1794.02 818.47 2107.26 475.867 2202.9 264.612" stroke="url(#paint27_linear_21_159)" stroke-width="1.22768" stroke-miterlimit="10"/>
<path d="M-145.667 361.456C-106.794 338.614 187.947 163.227 985.082 498.333C1782.22 833.439 2105.62 451.597 2194.89 254.433" stroke="url(#paint28_linear_21_159)" stroke-width="1.22768" stroke-miterlimit="10"/>
<path d="M-144.046 349.979C-107.955 328.769 191.235 170.843 980.829 509.631C1770.42 848.418 2103.98 427.337 2186.89 244.251" stroke="url(#paint29_linear_21_159)" stroke-width="1.22768" stroke-miterlimit="10"/>
<path d="M-142.425 338.519C-109.104 318.941 194.534 178.464 976.565 520.945C1758.6 863.427 2102.34 403.095 2178.86 234.099" stroke="url(#paint30_linear_21_159)" stroke-width="1.22768" stroke-miterlimit="10"/>
<path d="M-140.805 327.045C-110.266 309.097 197.832 186.082 972.311 532.232C1746.79 878.381 2100.7 378.823 2170.85 223.905" stroke="url(#paint31_linear_21_159)" stroke-width="1.22768" stroke-miterlimit="10"/>
<path d="M-139.196 315.569C-111.438 299.254 201.108 193.687 968.047 543.531C1734.99 893.375 2099.06 354.565 2162.83 213.738" stroke="url(#paint32_linear_21_159)" stroke-width="1.22768" stroke-miterlimit="10"/>
<path d="M-137.575 304.108C-112.587 289.423 204.407 201.319 963.795 554.844C1723.18 908.369 2097.43 330.321 2154.82 203.57" stroke="url(#paint33_linear_21_159)" stroke-width="1.22768" stroke-miterlimit="10"/>
<path d="M-135.954 292.63C-113.748 279.578 207.706 208.921 959.531 566.128C1711.36 923.334 2095.78 306.061 2146.8 193.388" stroke="url(#paint34_linear_21_159)" stroke-width="1.22768" stroke-miterlimit="10"/>
<path d="M-134.333 281.157C-114.897 269.736 211.005 216.541 955.278 577.429C1699.55 938.317 2094.14 281.804 2138.78 183.209" stroke="url(#paint35_linear_21_159)" stroke-width="1.22768" stroke-miterlimit="10"/>
<path d="M-132.712 269.693C-116.058 259.904 214.292 224.158 951.026 588.74C1687.76 953.322 2092.51 257.558 2130.77 173.053" stroke="url(#paint36_linear_21_159)" stroke-width="1.22768" stroke-miterlimit="10"/>
<path d="M-131.093 258.221C-117.208 250.063 217.59 231.778 946.772 600.042C1675.95 968.305 2090.86 233.289 2122.75 162.875" stroke="url(#paint37_linear_21_159)" stroke-width="1.22768" stroke-miterlimit="10"/>
<path d="M-129.483 246.747C-118.38 240.221 220.878 239.398 942.496 611.329C1664.11 983.261 2089.23 209.032 2114.74 152.696" stroke="url(#paint38_linear_21_159)" stroke-width="1.22768" stroke-miterlimit="10"/>
<path d="M-127.863 235.272C-119.53 230.377 224.165 247.003 938.243 622.629C1652.32 998.255 2087.59 184.774 2106.72 142.528" stroke="url(#paint39_linear_21_159)" stroke-width="1.22768" stroke-miterlimit="10"/>
<path d="M-126.242 223.808C-120.691 220.545 227.464 254.633 933.99 633.94C1640.52 1013.25 2085.96 160.514 2098.7 132.346" stroke="url(#paint40_linear_21_159)" stroke-width="1.22768" stroke-miterlimit="10"/>
<path d="M-124.621 212.337C-121.84 210.706 230.763 262.242 929.738 645.23C1628.71 1028.22 2084.31 136.26 2090.69 122.183" stroke="url(#paint41_linear_21_159)" stroke-width="1.22768" stroke-miterlimit="10"/>
<path d="M-123.001 200.86C-123.001 200.86 234.061 269.858 925.473 656.527C1616.89 1043.2 2082.67 112 2082.67 112" stroke="#2C5257" stroke-width="1.22768" stroke-miterlimit="10"/>
<path d="M-119.403 222.46C-118.047 220.707 247.268 255.536 926.589 638.578C1605.91 1021.62 2063.08 161.094 2081.67 154.945" stroke="#2C5257" stroke-width="1.22768" stroke-miterlimit="10"/>
<path d="M-115.806 244.076C-113.093 240.571 260.486 241.245 927.703 620.66C1594.92 1000.07 2043.51 210.191 2080.67 197.894" stroke="#2C5257" stroke-width="1.22768" stroke-miterlimit="10"/>
<path d="M-112.207 265.68C-108.138 260.421 273.705 226.94 928.808 602.714C1583.91 978.488 2023.92 259.261 2079.67 240.842" stroke="#2C5257" stroke-width="1.22768" stroke-miterlimit="10"/>
<path d="M-108.61 287.277C-103.197 280.265 286.922 212.615 929.922 584.776C1572.92 956.936 2004.33 308.352 2078.66 283.784" stroke="#2C5257" stroke-width="1.22768" stroke-miterlimit="10"/>
<path d="M-105.013 308.881C-98.2432 300.117 300.14 198.312 931.036 566.832C1561.93 935.351 1984.74 357.438 2077.66 326.721" stroke="#2C5257" stroke-width="1.22768" stroke-miterlimit="10"/>
<path d="M-101.403 330.483C-93.277 319.966 313.359 183.992 932.152 548.898C1550.94 913.804 1965.17 406.533 2076.66 369.668" stroke="#2C5257" stroke-width="1.22768" stroke-miterlimit="10"/>
<path d="M-97.8062 352.081C-88.3236 339.81 326.577 169.682 933.266 530.961C1539.96 892.239 1945.58 455.612 2075.66 412.611" stroke="#2C5257" stroke-width="1.22768" stroke-miterlimit="10"/>
<path d="M-94.2085 373.684C-83.3696 359.661 339.795 155.363 934.381 513.015C1528.97 870.666 1925.99 504.695 2074.65 455.546" stroke="#2C5257" stroke-width="1.22768" stroke-miterlimit="10"/>
<path d="M-90.6108 395.298C-78.4157 379.522 353.013 141.069 935.496 495.08C1517.98 849.091 1906.41 553.79 2073.65 498.492" stroke="#2C5257" stroke-width="1.22768" stroke-miterlimit="10"/>
<path d="M-87.0127 416.9C-73.4612 399.371 366.232 126.763 936.6 477.147C1506.97 827.531 1886.82 602.886 2072.64 541.439" stroke="#2C5257" stroke-width="1.22768" stroke-miterlimit="10"/>
<path d="M-83.4146 438.503C-68.5068 419.221 379.45 112.445 937.715 459.201C1495.98 805.958 1867.24 651.956 2071.64 584.374" stroke="#2C5257" stroke-width="1.22768" stroke-miterlimit="10"/>
<path d="M-79.8057 460.103C-63.5531 439.068 392.668 98.1367 938.841 441.266C1485.01 784.395 1847.66 701.05 2070.65 627.333" stroke="#2C5257" stroke-width="1.22768" stroke-miterlimit="10"/>
<path d="M-76.2085 481.706C-58.5996 458.918 405.886 83.8177 939.945 423.32C1474 762.822 1828.07 750.133 2069.64 670.267" stroke="#2C5257" stroke-width="1.22768" stroke-miterlimit="10"/>
<path d="M-72.6108 503.311C-53.6457 478.77 419.104 69.5149 941.059 405.39C1463.02 741.264 1808.49 799.232 2068.64 713.217" stroke="#2C5257" stroke-width="1.22768" stroke-miterlimit="10"/>
<path d="M-69.0127 524.908C-48.6912 498.614 432.323 55.2038 942.175 387.438C1452.03 719.672 1788.91 848.296 2067.64 756.146" stroke="#2C5257" stroke-width="1.22768" stroke-miterlimit="10"/>
<path d="M-65.4146 546.511C-43.7368 518.464 445.541 40.8849 943.279 369.505C1441.02 698.125 1769.31 897.393 2066.63 799.094" stroke="#2C5257" stroke-width="1.22768" stroke-miterlimit="10"/>
<path d="M-61.8174 568.127C-38.7833 538.327 458.747 26.5928 944.393 351.572C1430.04 676.552 1749.72 946.49 2065.63 842.042" stroke="#2C5257" stroke-width="1.22768" stroke-miterlimit="10"/>
<path d="M-58.208 589.726C-33.8177 558.174 471.977 12.2709 945.52 333.637C1419.06 655.003 1730.16 995.583 2064.62 884.987" stroke="#2C5257" stroke-width="1.22768" stroke-miterlimit="10"/>
<path d="M-54.6108 611.329C-28.8757 578.023 485.195 -2.03473 946.623 315.69C1408.05 633.416 1710.56 1044.65 2063.61 927.921" stroke="#2C5257" stroke-width="1.22768" stroke-miterlimit="10"/>
<path d="M-51.0137 632.931C-23.9222 597.872 498.413 -16.3408 947.738 297.757C1397.06 611.855 1690.98 1093.75 2062.61 970.869" stroke="#2C5257" stroke-width="1.22768" stroke-miterlimit="10"/>
<path d="M-47.4165 654.531C-18.9688 617.719 511.63 -30.6623 948.852 279.808C1386.07 590.279 1671.39 1142.83 2061.61 1013.81" stroke="#2C5257" stroke-width="1.22768" stroke-miterlimit="10"/>
<rect x="1" width="756" height="773" fill="#F7F7F7"/>
</g>
<defs>
<linearGradient id="paint0_linear_21_159" x1="2648.17" y1="843.773" x2="60.9412" y2="124.993" gradientUnits="userSpaceOnUse">
<stop stop-color="#2C5257"/>
<stop offset="1" stop-color="#2C5257" stop-opacity="0.8"/>
</linearGradient>
<linearGradient id="paint1_linear_21_159" x1="2657.6" y1="837.053" x2="60.8141" y2="151.255" gradientUnits="userSpaceOnUse">
<stop stop-color="#2C5257"/>
<stop offset="1" stop-color="#2C5257" stop-opacity="0.8095"/>
</linearGradient>
<linearGradient id="paint2_linear_21_159" x1="2666.54" y1="830.137" x2="61.3757" y2="177.918" gradientUnits="userSpaceOnUse">
<stop stop-color="#2C5257"/>
<stop offset="1" stop-color="#2C5257" stop-opacity="0.819"/>
</linearGradient>
<linearGradient id="paint3_linear_21_159" x1="2674.97" y1="822.98" x2="62.089" y2="204.65" gradientUnits="userSpaceOnUse">
<stop stop-color="#2C5257"/>
<stop offset="1" stop-color="#2C5257" stop-opacity="0.8286"/>
</linearGradient>
<linearGradient id="paint4_linear_21_159" x1="2682.93" y1="815.654" x2="63.522" y2="231.225" gradientUnits="userSpaceOnUse">
<stop stop-color="#2C5257"/>
<stop offset="1" stop-color="#2C5257" stop-opacity="0.8381"/>
</linearGradient>
<linearGradient id="paint5_linear_21_159" x1="2690.35" y1="808.162" x2="65.3794" y2="258.128" gradientUnits="userSpaceOnUse">
<stop stop-color="#2C5257"/>
<stop offset="1" stop-color="#2C5257" stop-opacity="0.8476"/>
</linearGradient>
<linearGradient id="paint6_linear_21_159" x1="2697.27" y1="800.496" x2="67.4097" y2="284.801" gradientUnits="userSpaceOnUse">
<stop stop-color="#2C5257" stop-opacity="0.145098"/>
<stop offset="1" stop-color="#2C5257" stop-opacity="0.8571"/>
</linearGradient>
<linearGradient id="paint7_linear_21_159" x1="2703.64" y1="792.729" x2="70.1473" y2="311.792" gradientUnits="userSpaceOnUse">
<stop stop-color="#2C5257"/>
<stop offset="1" stop-color="#2C5257" stop-opacity="0.8667"/>
</linearGradient>
<linearGradient id="paint8_linear_21_159" x1="2709.47" y1="784.844" x2="73.0519" y2="338.789" gradientUnits="userSpaceOnUse">
<stop stop-color="#2C5257"/>
<stop offset="1" stop-color="#2C5257" stop-opacity="0.8762"/>
</linearGradient>
<linearGradient id="paint9_linear_21_159" x1="2715.31" y1="773.548" x2="77.2039" y2="362.207" gradientUnits="userSpaceOnUse">
<stop stop-color="#2C5257"/>
<stop offset="1" stop-color="#2C5257" stop-opacity="0.8857"/>
</linearGradient>
<linearGradient id="paint10_linear_21_159" x1="2723.51" y1="741.141" x2="84.7053" y2="364.816" gradientUnits="userSpaceOnUse">
<stop stop-color="#2C5257"/>
<stop offset="1" stop-color="#2C5257" stop-opacity="0.8952"/>
</linearGradient>
<linearGradient id="paint11_linear_21_159" x1="2730.53" y1="708.652" x2="91.7423" y2="367.1" gradientUnits="userSpaceOnUse">
<stop stop-color="#2C5257"/>
<stop offset="1" stop-color="#2C5257" stop-opacity="0.9048"/>
</linearGradient>
<linearGradient id="paint12_linear_21_159" x1="2736.35" y1="676.19" x2="98.8373" y2="369.638" gradientUnits="userSpaceOnUse">
<stop stop-color="#2C5257" stop-opacity="0.333333"/>
<stop offset="1" stop-color="#2C5257" stop-opacity="0.9143"/>
</linearGradient>
<linearGradient id="paint13_linear_21_159" x1="2741" y1="643.76" x2="105.47" y2="371.887" gradientUnits="userSpaceOnUse">
<stop stop-color="#2C5257"/>
<stop offset="1" stop-color="#2C5257" stop-opacity="0.9238"/>
</linearGradient>
<linearGradient id="paint14_linear_21_159" x1="2744.45" y1="611.467" x2="112.153" y2="374.421" gradientUnits="userSpaceOnUse">
<stop stop-color="#2C5257"/>
<stop offset="1" stop-color="#2C5257" stop-opacity="0.9333"/>
</linearGradient>
<linearGradient id="paint15_linear_21_159" x1="2746.72" y1="579.316" x2="118.356" y2="376.956" gradientUnits="userSpaceOnUse">
<stop stop-color="#2C5257"/>
<stop offset="1" stop-color="#2C5257" stop-opacity="0.9429"/>
</linearGradient>
<linearGradient id="paint16_linear_21_159" x1="2747.85" y1="547.402" x2="124.649" y2="379.297" gradientUnits="userSpaceOnUse">
<stop stop-color="#2C5257"/>
<stop offset="1" stop-color="#2C5257" stop-opacity="0.9524"/>
</linearGradient>
<linearGradient id="paint17_linear_21_159" x1="2747.81" y1="515.764" x2="130.715" y2="381.95" gradientUnits="userSpaceOnUse">
<stop stop-color="#2C5257"/>
<stop offset="1" stop-color="#2C5257" stop-opacity="0.9619"/>
</linearGradient>
<linearGradient id="paint18_linear_21_159" x1="2746.65" y1="484.412" x2="136.338" y2="384.389" gradientUnits="userSpaceOnUse">
<stop stop-color="#2C5257"/>
<stop offset="1" stop-color="#2C5257" stop-opacity="0.9714"/>
</linearGradient>
<linearGradient id="paint19_linear_21_159" x1="2744.35" y1="453.466" x2="142.007" y2="387.197" gradientUnits="userSpaceOnUse">
<stop stop-color="#2C5257"/>
<stop offset="1" stop-color="#2C5257" stop-opacity="0.981"/>
</linearGradient>
<linearGradient id="paint20_linear_21_159" x1="2740.97" y1="422.892" x2="147.244" y2="389.81" gradientUnits="userSpaceOnUse">
<stop stop-color="#2C5257"/>
<stop offset="1" stop-color="#2C5257" stop-opacity="0.9905"/>
</linearGradient>
<linearGradient id="paint21_linear_21_159" x1="-47.8421" y1="5.47262" x2="2190.72" y2="567.663" gradientUnits="userSpaceOnUse">
<stop stop-color="#2C5257"/>
<stop offset="1" stop-color="#2C5257" stop-opacity="0.8"/>
</linearGradient>
<linearGradient id="paint22_linear_21_159" x1="-55.8986" y1="11.8203" x2="2188.25" y2="547.574" gradientUnits="userSpaceOnUse">
<stop stop-color="#2C5257"/>
<stop offset="1" stop-color="#2C5257" stop-opacity="0.8095"/>
</linearGradient>
<linearGradient id="paint23_linear_21_159" x1="-63.5298" y1="18.3541" x2="2185.27" y2="527.289" gradientUnits="userSpaceOnUse">
<stop stop-color="#2C5257"/>
<stop offset="1" stop-color="#2C5257" stop-opacity="0.819"/>
</linearGradient>
<linearGradient id="paint24_linear_21_159" x1="-70.7306" y1="25.1143" x2="2182.26" y2="507.075" gradientUnits="userSpaceOnUse">
<stop stop-color="#2C5257"/>
<stop offset="1" stop-color="#2C5257" stop-opacity="0.8286"/>
</linearGradient>
<linearGradient id="paint25_linear_21_159" x1="-77.5275" y1="32.0346" x2="2178.75" y2="487.1" gradientUnits="userSpaceOnUse">
<stop stop-color="#2C5257"/>
<stop offset="1" stop-color="#2C5257" stop-opacity="0.8381"/>
</linearGradient>
<linearGradient id="paint26_linear_21_159" x1="-83.8659" y1="39.1118" x2="2174.97" y2="466.972" gradientUnits="userSpaceOnUse">
<stop stop-color="#2C5257"/>
<stop offset="1" stop-color="#2C5257" stop-opacity="0.8476"/>
</linearGradient>
<linearGradient id="paint27_linear_21_159" x1="-89.7703" y1="46.3532" x2="2171.17" y2="447.131" gradientUnits="userSpaceOnUse">
<stop stop-color="#2C5257" stop-opacity="0.145098"/>
<stop offset="1" stop-color="#2C5257" stop-opacity="0.8571"/>
</linearGradient>
<linearGradient id="paint28_linear_21_159" x1="-95.2117" y1="53.6895" x2="2166.88" y2="427.128" gradientUnits="userSpaceOnUse">
<stop stop-color="#2C5257"/>
<stop offset="1" stop-color="#2C5257" stop-opacity="0.8667"/>
</linearGradient>
<linearGradient id="paint29_linear_21_159" x1="-100.193" y1="61.138" x2="2162.56" y2="407.207" gradientUnits="userSpaceOnUse">
<stop stop-color="#2C5257"/>
<stop offset="1" stop-color="#2C5257" stop-opacity="0.8762"/>
</linearGradient>
<linearGradient id="paint30_linear_21_159" x1="-105.179" y1="71.8081" x2="2157.32" y2="390.706" gradientUnits="userSpaceOnUse">
<stop stop-color="#2C5257"/>
<stop offset="1" stop-color="#2C5257" stop-opacity="0.8857"/>
</linearGradient>
<linearGradient id="paint31_linear_21_159" x1="-112.176" y1="102.421" x2="2149.34" y2="393.967" gradientUnits="userSpaceOnUse">
<stop stop-color="#2C5257"/>
<stop offset="1" stop-color="#2C5257" stop-opacity="0.8952"/>
</linearGradient>
<linearGradient id="paint32_linear_21_159" x1="-118.173" y1="133.11" x2="2141.9" y2="397.55" gradientUnits="userSpaceOnUse">
<stop stop-color="#2C5257"/>
<stop offset="1" stop-color="#2C5257" stop-opacity="0.9048"/>
</linearGradient>
<linearGradient id="paint33_linear_21_159" x1="-123.143" y1="163.774" x2="2134.53" y2="400.979" gradientUnits="userSpaceOnUse">
<stop stop-color="#2C5257" stop-opacity="0.333333"/>
<stop offset="1" stop-color="#2C5257" stop-opacity="0.9143"/>
</linearGradient>
<linearGradient id="paint34_linear_21_159" x1="-127.114" y1="194.408" x2="2127.71" y2="404.671" gradientUnits="userSpaceOnUse">
<stop stop-color="#2C5257"/>
<stop offset="1" stop-color="#2C5257" stop-opacity="0.9238"/>
</linearGradient>
<linearGradient id="paint35_linear_21_159" x1="-130.06" y1="224.913" x2="2120.97" y2="408.158" gradientUnits="userSpaceOnUse">
<stop stop-color="#2C5257"/>
<stop offset="1" stop-color="#2C5257" stop-opacity="0.9333"/>
</linearGradient>
<linearGradient id="paint36_linear_21_159" x1="-131.997" y1="255.283" x2="2114.78" y2="411.653" gradientUnits="userSpaceOnUse">
<stop stop-color="#2C5257"/>
<stop offset="1" stop-color="#2C5257" stop-opacity="0.9429"/>
</linearGradient>
<linearGradient id="paint37_linear_21_159" x1="-132.967" y1="285.429" x2="2108.67" y2="415.286" gradientUnits="userSpaceOnUse">
<stop stop-color="#2C5257"/>
<stop offset="1" stop-color="#2C5257" stop-opacity="0.9524"/>
</linearGradient>
<linearGradient id="paint38_linear_21_159" x1="-132.928" y1="315.316" x2="2102.88" y2="418.656" gradientUnits="userSpaceOnUse">
<stop stop-color="#2C5257"/>
<stop offset="1" stop-color="#2C5257" stop-opacity="0.9619"/>
</linearGradient>
<linearGradient id="paint39_linear_21_159" x1="-131.938" y1="344.931" x2="2097.61" y2="422.159" gradientUnits="userSpaceOnUse">
<stop stop-color="#2C5257"/>
<stop offset="1" stop-color="#2C5257" stop-opacity="0.9714"/>
</linearGradient>
<linearGradient id="paint40_linear_21_159" x1="-129.972" y1="374.162" x2="2092.43" y2="425.322" gradientUnits="userSpaceOnUse">
<stop stop-color="#2C5257"/>
<stop offset="1" stop-color="#2C5257" stop-opacity="0.981"/>
</linearGradient>
<linearGradient id="paint41_linear_21_159" x1="-127.087" y1="403.044" x2="2087.76" y2="428.58" gradientUnits="userSpaceOnUse">
<stop stop-color="#2C5257"/>
<stop offset="1" stop-color="#2C5257" stop-opacity="0.9905"/>
</linearGradient>
<clipPath id="clip0_21_159">
<rect width="1512" height="773" fill="white"/>
</clipPath>
</defs>
</svg>
